<?xml version="1.0" encoding="utf-8"?>
<!-- Generator: Adobe Illustrator 19.1.1, SVG Export Plug-In . SVG Version: 6.00 Build 0)  -->
<!DOCTYPE svg PUBLIC "-//W3C//DTD SVG 1.1//EN" "http://www.w3.org/Graphics/SVG/1.1/DTD/svg11.dtd">
<svg version="1.1" id="レイヤー_1" xmlns="http://www.w3.org/2000/svg" xmlns:xlink="http://www.w3.org/1999/xlink" x="0px"
     y="0px" width="40px" height="40px" viewBox="0 0 40 40" xml:space="preserve">

<symbol id="elevator" viewBox="0 0 40 40">
	<path d="M40,36c0,2.2-1.8,4-4,4H4c-2.2,0-4-1.8-4-4V4c0-2.2,1.8-4,4-4h32c2.2,0,4,1.8,4,4V36z"/>
    <circle cx="15.794" cy="19.046" r="1.38"/>
    <path d="M15.794,20.764c-0.979,0-3.28,0.093-3.28,1.994V27.3c-0.014,0.296,0.215,0.548,0.511,0.562
	c0.296,0.014,0.548-0.215,0.562-0.511l0.253-2.759l0.276,10.27c0,0.387,0.313,0.7,0.7,0.7c0.387,0,0.7-0.313,0.7-0.7
	l0.278-6.314l0.278,6.314c0,0.387,0.314,0.7,0.7,0.7c0.387,0,0.7-0.313,0.7-0.7l0.276-10.27l0.253,2.759
	c0.014,0.296,0.266,0.525,0.562,0.511c0.296-0.014,0.525-0.266,0.511-0.562v-4.542C19.074,20.857,16.774,20.764,15.794,20.764z"
    />
    <circle cx="24.207" cy="19.046" r="1.38"/>
    <path d="M24.207,20.764c-0.979,0-3.279,0.093-3.279,1.994V27.3c-0.014,0.296,0.215,0.548,0.511,0.562
	c0.296,0.014,0.547-0.215,0.562-0.511l0.253-2.759l0.276,10.27c0,0.387,0.313,0.7,0.7,0.7c0.386,0,0.7-0.313,0.7-0.7
	l0.278-6.314l0.278,6.314c0,0.387,0.314,0.7,0.7,0.7c0.387,0,0.7-0.313,0.7-0.7l0.276-10.27l0.253,2.759
	c0.014,0.296,0.266,0.525,0.562,0.511c0.296-0.014,0.525-0.266,0.511-0.562v-4.542C27.487,20.857,25.186,20.764,24.207,20.764z"
    />
    <path d="M29.033,36.544H10.967c-1.388,0-2.518-1.13-2.518-2.518V14.684c0-1.388,1.13-2.518,2.518-2.518
	h18.066c1.388,0,2.518,1.129,2.518,2.518v19.342C31.551,35.415,30.422,36.544,29.033,36.544z M10.967,13.755
	c-0.512,0-0.929,0.417-0.929,0.929v19.342c0,0.512,0.417,0.929,0.929,0.929h18.066c0.512,0,0.929-0.417,0.929-0.929V14.684
	c0-0.512-0.417-0.929-0.929-0.929H10.967z"/>
    <path d="M28.137,7.036l-3.085-3.085l0,0l-0.496-0.496l-0.496,0.496c0,0,0,0,0,0l-3.085,3.085
	c-0.274,0.274-0.274,0.718,0,0.992c0.274,0.274,0.718,0.274,0.992,0l1.888-1.888v4.244c0,0.387,0.314,0.701,0.701,0.701
	c0.387,0,0.701-0.314,0.701-0.701V6.14l1.888,1.888c0.137,0.137,0.316,0.205,0.496,0.205c0.179,0,0.359-0.069,0.496-0.205
	C28.412,7.754,28.412,7.31,28.137,7.036z"/>
    <path d="M19.351,6.803c-0.274-0.274-0.718-0.274-0.991,0l-1.888,1.888V4.447
	c0-0.387-0.314-0.701-0.701-0.701s-0.701,0.314-0.701,0.701v4.244l-1.888-1.888c-0.274-0.274-0.718-0.274-0.992,0
	c-0.274,0.274-0.274,0.718,0,0.992l3.085,3.085v0l0.496,0.496l0.496-0.496l0,0l3.085-3.085
	C19.625,7.521,19.625,7.077,19.351,6.803z"/>
</symbol>

    <symbol id="bicycle" viewBox="0 0 40 40">
	<path d="M40,36c0,2.2-1.8,4-4,4H4c-2.2,0-4-1.8-4-4V4c0-2.2,1.8-4,4-4h32c2.2,0,4,1.8,4,4V36z"/>
        <path d="M30.224,18.36c-0.806,0-1.576,0.158-2.282,0.442l-4.229-8.448l0,0l0,0
	c-0.298-0.595-0.948-0.974-1.652-0.967h-1.342c-0.279,0-0.505,0.226-0.505,0.505c0,0.279,0.226,0.505,0.505,0.505l1.347,0
	c0.321-0.003,0.62,0.161,0.745,0.41l0,0l1.829,3.653c-0.584,0.365-1.745,1.362-3.066,3.973c-0.872,1.724-1.84,2.989-2.879,3.762
	c-0.086-0.01-0.173-0.016-0.261-0.016c-0.076,0-0.15,0.004-0.224,0.011l-2.306-8.719h0.938c0.279,0,0.505-0.226,0.505-0.505
	c0-0.279-0.226-0.505-0.505-0.505h-3.334c-0.279,0-0.505,0.226-0.505,0.505c0,0.279,0.226,0.505,0.505,0.505h1.352l1.048,3.962
	l-1.766,2.078c-1.006-0.723-2.237-1.151-3.568-1.151c-3.378,0-6.127,2.748-6.127,6.127s2.748,6.127,6.127,6.127
	c3.018,0,5.531-2.194,6.033-5.07c0.389,0.597,1.062,0.993,1.826,0.993c1.201,0,2.179-0.977,2.179-2.179
	c0-0.026-0.001-0.052-0.002-0.078c0.869-0.514,2.095-1.634,3.236-4.07c0.93-1.985,1.749-2.783,2.133-3.074l1.061,2.119
	c-1.763,1.077-2.943,3.019-2.943,5.232c0,3.378,2.748,6.126,6.127,6.126s6.127-2.748,6.127-6.126
	C36.351,21.108,33.603,18.36,30.224,18.36z M10.574,29.604c-2.822,0-5.117-2.296-5.117-5.117s2.296-5.117,5.117-5.117
	c1.081,0,2.085,0.338,2.912,0.913l-2.453,2.885c-0.144-0.05-0.298-0.079-0.459-0.079c-0.771,0-1.399,0.627-1.399,1.399
	s0.627,1.399,1.399,1.399c0.771,0,1.399-0.627,1.399-1.399c0-0.241-0.061-0.469-0.17-0.667l2.451-2.884
	c0.889,0.921,1.437,2.173,1.437,3.551C15.691,27.308,13.396,29.604,10.574,29.604z M16.57,23.229
	c-0.248-1.182-0.837-2.24-1.659-3.066l1.311-1.543l1.033,3.905C16.977,22.706,16.742,22.946,16.57,23.229z M18.434,25.527
	c-0.645,0-1.17-0.525-1.17-1.17s0.525-1.17,1.17-1.17c0.645,0,1.169,0.525,1.169,1.17C19.603,25.002,19.078,25.527,18.434,25.527z
	 M22.933,19.781c-0.936,1.997-1.893,2.992-2.614,3.487c-0.144-0.248-0.335-0.465-0.561-0.639c0.987-0.871,1.899-2.125,2.716-3.741
	c1.173-2.319,2.171-3.208,2.62-3.518l0.427,0.852C25.016,16.558,24.02,17.462,22.933,19.781z M30.224,29.604
	c-2.822,0-5.117-2.296-5.117-5.117c0-1.819,0.954-3.417,2.388-4.325l1.696,3.387c-0.226,0.248-0.365,0.577-0.365,0.938
	c0,0.771,0.627,1.399,1.399,1.399c0.771,0,1.399-0.627,1.399-1.399s-0.627-1.398-1.399-1.398c-0.045,0-0.089,0.003-0.133,0.007
	l-1.696-3.387c0.568-0.218,1.184-0.339,1.828-0.339c2.822,0,5.117,2.296,5.117,5.117S33.046,29.604,30.224,29.604z"/>
        <path d="M28.167,17.435c0.084,0.174,0.261,0.285,0.454,0.285h2.766c0.279,0,0.505-0.226,0.505-0.505v-3.808
	c0-0.279-0.226-0.505-0.505-0.505H26.78c-0.174,0-0.335,0.089-0.427,0.236c-0.092,0.147-0.102,0.331-0.027,0.488L28.167,17.435z"/>
        <path d="M18.433,23.703c-0.361,0-0.654,0.293-0.654,0.654c0,0.361,0.293,0.654,0.654,0.654
	c0.361,0,0.654-0.293,0.654-0.654S18.794,23.703,18.433,23.703z"/>
        <path d="M4.586,20.918c1.253-2.097,3.547-3.4,5.987-3.4c1.048,0,2.056,0.227,2.994,0.674
	c0.252,0.12,0.553,0.013,0.673-0.238c0.12-0.252,0.013-0.553-0.238-0.673c-0.529-0.252-1.076-0.443-1.639-0.572l0.26-0.906h0.63
	c0.279,0,0.505-0.226,0.505-0.505s-0.226-0.505-0.505-0.505H5.732c-0.279,0-0.505,0.226-0.505,0.505s0.226,0.505,0.505,0.505
	h0.677l0.719,1.487c-0.187,0.09-0.371,0.186-0.551,0.29c-1.173,0.68-2.161,1.655-2.856,2.82c-0.143,0.239-0.065,0.549,0.174,0.692
	c0.081,0.048,0.17,0.072,0.258,0.072C4.325,21.163,4.492,21.076,4.586,20.918z M7.53,15.803h4.044l-0.213,0.744
	c-0.26-0.025-0.522-0.039-0.786-0.039c-0.856,0-1.703,0.138-2.508,0.404L7.53,15.803z"/>
</symbol>

    <symbol id="pet" viewBox="0 0 40 40">
	<path d="M40,36c0,2.2-1.8,4-4,4H4c-2.2,0-4-1.8-4-4V4c0-2.2,1.8-4,4-4h32c2.2,0,4,1.8,4,4V36z"/>
        <path d="M40,36c0,2.2-1.8,4-4,4H4c-2.2,0-4-1.8-4-4V4c0-2.2,1.8-4,4-4h32c2.2,0,4,1.8,4,4V36z"/>
        <line x1="-1.077" y1="41.004" x2="41.923" y2="-1.996"/>
        <path d="M4.802,32.545h5.407c0,0,0.701-4.346,1.551-5.178c0.85-0.834,1.699-0.965,2.091-0.965
	c0.392,0,6.044,0,6.044,0l0.931,6.176h5.521c0,0-0.817-8.838-0.817-9.002c0-0.163-0.032-0.358,0.245-0.801
	c0.277-0.44,1.045-1.633,1.127-1.748c0.083-0.114,0.164-0.179,0.277-0.065c0.114,0.115,0.645,0.92,0.703,0.996
	c0.147,0.196,0.212,0.262,0.408,0.082c0.196-0.196,0.474-0.474,0.522-0.506c0.05-0.032,0.164-0.099,0.246,0.032
	s0.832,1.258,0.882,1.339c0.049,0.083,0.212,0.198,0.359,0.083c0.147-0.113,0.509-0.356,0.571-0.407
	c0.098-0.083,0.246-0.131,0.36,0.064c0.114,0.196,0.751,1.078,0.8,1.176c0.05,0.098,0.213,0.098,0.278-0.048
	c0.066-0.148,2.491-5.329,2.678-5.735c0.213-0.456,0.473-1.045-0.391-1.519c-0.866-0.472-6.877-3.938-6.877-3.938
	s0-4.409,0-4.687c0-0.425-0.229-0.474-0.377-0.474c-0.147,0-0.31,0.034-0.522,0.344c-0.212,0.31-6.37,9.123-6.37,9.123H8.467
	c0,0-2.28-2.842-2.385-2.997c-0.103-0.155-0.301-0.278-0.415,0.015c-0.114,0.293-1.045,2.68,0.621,4.558L4.802,32.545z"/>
</symbol>

    <symbol id="dpwc" viewBox="0 0 40 40">
	<path d="M20-16c0-2.2-1.8-4-4-4h-32c-2.2,0-4,1.8-4,4v32c0,2.2,1.8,4,4,4h32c2.2,0,4-1.8,4-4V-16z"/>
        <path d="M-0.069,12.549c-0.056-1.668-1.454-2.974-3.121-2.917c-1.668,0.056-2.974,1.454-2.918,3.121
		c0.056,1.668,1.454,2.974,3.122,2.918C-1.319,15.613-0.012,14.216-0.069,12.549z"/>
        <path d="M11.304-11.43L8.029-3.299c-0.296,0.541-0.819,0.82-1.668,0.995L1.315-1.319
		c-0.031,0.204-0.2,0.984-0.42,1.985l5.038,0.32c0.649,0,1.176,0.526,1.176,1.176c0,0.649-0.526,1.219-1.176,1.219H0.28
		l-0.689,3.127c-0.273,1.406-1.633,2.324-3.039,2.052C-4.853,8.286-5.772,6.926-5.5,5.52c0.364-2.024,2.326-9.549,2.326-9.549
		s0.16-0.69,0.63-1.225c0.002-0.003,0.008,0,0.011-0.001c0.39-0.407,0.937-0.662,1.545-0.662h6.323l3.546-6.834
		c0.364-0.669,1.202-0.916,1.871-0.552C11.421-12.937,11.668-12.099,11.304-11.43z"/>
        <path d="M4.68-7.181c-0.264-3.689-3.335-6.623-7.095-6.648c-3.951-0.027-7.187,3.166-7.213,7.116
		c-0.02,2.911,1.71,5.433,4.202,6.569c-0.149,0.595-0.301,1.209-0.448,1.813c-3.3-1.356-5.621-4.614-5.596-8.394
		c0.034-4.966,4.102-8.98,9.068-8.946c3.855,0.026,7.135,2.484,8.394,5.905L4.68-7.181z"/>
</symbol>

    <symbol id="escalator" viewBox="0 0 40 40">
	<path d="M20-16c0-2.2-1.8-4-4-4h-32c-2.2,0-4,1.8-4,4v32c0,2.2,1.8,4,4,4h32c2.2,0,4-1.8,4-4V-16z"/>
        <path d="M14.813-13.61v6.575c0,0,0,0,0,0l0,1.057h-1.056c0,0,0,0,0,0l-6.576,0
		c-0.584,0-1.057-0.474-1.057-1.057c0-0.584,0.473-1.057,1.057-1.057l4.024,0l-4.524-4.524c-0.413-0.413-0.412-1.082,0-1.494
		c0.413-0.413,1.082-0.413,1.495,0l4.523,4.524v-4.025c0-0.292,0.119-0.556,0.31-0.747c0.191-0.191,0.455-0.31,0.747-0.31
		C14.339-14.667,14.813-14.194,14.813-13.61z"/>
        <path d="M13.28,10.692H7.029c-0.513,0-1.229-0.296-1.592-0.658L-9.369-4.716
		c-0.363-0.362-1.079-0.658-1.592-0.658h-2.319c-2.498,0-4.53-2.032-4.53-4.53c0-2.498,2.032-4.53,4.53-4.53h6.251
		c0.513,0,1.229,0.296,1.592,0.658L9.369,0.973c0.363,0.362,1.08,0.658,1.592,0.658h2.319c2.498,0,4.53,2.032,4.53,4.53
		C17.811,8.659,15.779,10.692,13.28,10.692z M13.28,3.669H9.188L-6.938-12.397h-6.342c-1.374,0-2.493,1.118-2.493,2.493
		c0,1.374,1.118,2.492,2.493,2.492h4.093L6.939,8.654h6.342c1.374,0,2.493-1.118,2.493-2.492
		C15.773,4.787,14.655,3.669,13.28,3.669z"/>
        <path d="M-0.924,12.802c0-1.03-0.834-1.864-1.864-1.864c-1.03,0-1.864,0.834-1.864,1.864
		c0,1.029,0.834,1.864,1.864,1.864C-1.759,14.666-0.924,13.832-0.924,12.802z"/>
        <path d="M0.331,7.297c0.362,2.861-1.72,3.121-3.033,3.121c-1.313,0-3.395-0.26-3.033-3.121
		c0.34-2.683,0.65-7.676,0.677-8.118l5.055,4.757C0.098,5.143,0.212,6.36,0.331,7.297z"/>
</symbol>

    <symbol id="cash" viewBox="0 0 40 40">
	<path d="M20-16c0-2.2-1.8-4-4-4h-32c-2.2,0-4,1.8-4,4v32c0,2.2,1.8,4,4,4h32c2.2,0,4-1.8,4-4V-16z"/>
        <polygon points="-7.697,-14.039 7.697,-14.039 7.697,10.41 -7.697,10.41 	"/>
        <polygon points="2.958,5.468 3.291,5.468 5.465,5.468 5.798,5.468 3.618,2.076 6.241,2.076 6.241,1.56
		6.241,-0.009 6.241,-0.528 1.942,-0.528 1.479,-1.245 1.479,-2.967 6.242,-2.967 6.242,-2.973 6.242,-5.202 6.242,-5.552 
		1.479,-5.552 1.479,-9.097 -1.477,-9.097 -1.477,-5.552 -6.241,-5.552 -6.241,-5.202 -6.241,-2.973 -6.241,-2.967 -1.477,-2.967 
		-1.477,-1.247 -1.942,-0.528 -6.241,-0.528 -6.241,-0.009 -6.241,1.56 -6.241,2.076 -3.616,2.076 -5.797,5.468 -5.464,5.468 
		-3.29,5.468 -2.957,5.468 0,0.867 	"/>
        <path d="M9.961,14.039H-9.961c-2.5,0-4.528-2.027-4.528-4.528c0-2.5,2.028-4.528,4.528-4.528h1.358v2.717
		c-0.998,0-1.811,0.813-1.811,1.811c0,0.999,0.813,1.811,1.811,1.811H8.602c0.999,0,1.811-0.812,1.811-1.811
		c0-0.998-0.812-1.811-1.811-1.811V4.984h1.358c2.501,0,4.528,2.028,4.528,4.528C14.488,12.013,12.461,14.039,9.961,14.039z"/>
</symbol>

    <symbol id="wc" viewBox="0 0 40 40">
	<path d="M20-16c0-2.2-1.8-4-4-4h-32c-2.2,0-4,1.8-4,4v32c0,2.2,1.8,4,4,4h32c2.2,0,4-1.8,4-4V-16z"/>
        <polygon points="1.232,-13.84 -0.521,-13.84 -0.521,13.895 1.232,13.895 		"/>
        <path d="M-8.727,9.261c1.28,0,2.317,1.038,2.317,2.317c0,1.28-1.037,2.317-2.317,2.317
		c-1.28,0-2.317-1.037-2.317-2.317C-11.044,10.299-10.007,9.261-8.727,9.261z"/>
        <path d="M-2.504-0.097L-4.21,5.956c-0.47,1.585-1.522,2.636-2.707,2.636c-0.878,0-1.811,0-1.811,0
		s-0.934,0-1.811,0c-1.184,0-2.237-1.051-2.707-2.636l-1.706-6.053c-0.126-0.51,0.185-1.03,0.695-1.155
		c0.51-0.126,1.021,0.172,1.147,0.682l1.701,6.034h0.502l-2.959-10.497h2.79v-7.786c0-0.595,0.482-1.077,1.077-1.077
		c0.595,0,1.078,0.482,1.078,1.077v7.786h0.594v-7.786c0-0.595,0.482-1.077,1.077-1.077c0.595,0,1.077,0.482,1.077,1.077v7.786
		h2.582L-6.548,5.465h0.502l1.701-6.034c0.126-0.51,0.637-0.808,1.147-0.682C-2.689-1.127-2.378-0.606-2.504-0.097z"/>
        <path d="M9.782,9.261c1.28,0,2.317,1.038,2.317,2.317c0,1.28-1.037,2.317-2.317,2.317
		c-1.28,0-2.317-1.037-2.317-2.317C7.465,10.299,8.503,9.261,9.782,9.261z"/>
        <path d="M12.635,8.607H6.547c-1.123,0-2.345-1.222-2.345-2.345v-7.788c0-0.561,0.455-1.016,1.016-1.016
		c0.561,0,1.017,0.455,1.017,1.016v6.403h0.469v-17.382c0-0.737,0.598-1.335,1.336-1.335c0.737,0,1.336,0.598,1.336,1.335v10.087
		h0.431v-10.087c0-0.737,0.598-1.335,1.336-1.335c0.737,0,1.335,0.598,1.335,1.335V4.878h0.469v-6.403
		c0-0.561,0.455-1.016,1.017-1.016c0.561,0,1.016,0.455,1.016,1.016v7.788C14.98,7.385,13.757,8.607,12.635,8.607z"/>
</symbol>

    <symbol id="parking" viewBox="0 0 40 40">
	<path d="M20-16c0-2.2-1.8-4-4-4h-32c-2.2,0-4,1.8-4,4v32c0,2.2,1.8,4,4,4h32c2.2,0,4-1.8,4-4V-16z"/>
        <path d="M-9.458-12.347v24.693h8.001c3.032,0,5.009-0.123,5.93-0.37c1.414-0.371,2.599-1.177,3.554-2.417
		C8.98,8.318,9.458,6.716,9.458,4.75c0-1.516-0.275-2.79-0.825-3.823c-0.551-1.033-1.25-1.845-2.098-2.435
		C5.687-2.097,4.826-2.488,3.95-2.678c-1.19-0.236-2.914-0.354-5.171-0.354h-3.251v-9.314H-9.458z M-4.472,8.17V1.162h2.729
		c1.965,0,3.278,0.129,3.941,0.388C2.86,1.807,3.38,2.213,3.755,2.762c0.377,0.55,0.564,1.19,0.564,1.92
		c0,0.898-0.264,1.64-0.791,2.224C3.001,7.49,2.333,7.855,1.524,8.001C0.929,8.113-0.267,8.17-2.064,8.17H-4.472z"/>
</symbol>

    <symbol id="tobacco" viewBox="0 0 40 40">
	<path d="M19.999-16c0-2.2-1.8-4-4-4h-32c-2.2,0-4,1.8-4,4v32c0,2.2,1.8,4,4,4h32c2.2,0,4-1.8,4-4V-16z"/>
        <polygon points="-14.936,-4.595 -14.936,-12.823 -14.936,-12.874 -14.936,-12.874 -14.936,-12.884
		-12.605,-12.884 -12.605,-4.595"/>
        <path d="M-11.397-4.595v-8.289h27.974v8.289H-11.397z M5.01-10.812H-9.325v4.144H5.01v-4.129L5.01-10.812z"/>
        <path d="M-11.283-3.167c0,0.201-0.083,0.365-0.185,0.365h0c-1.244,0-2.256,1.012-2.256,2.256
		s1.012,2.256,2.256,2.256v0.002c0.1,0.006,0.18,0.165,0.18,0.362c0,0.198-0.08,0.357-0.18,0.362v0.002h-0.005h0h0h-0.156
		c-1.829,0-3.316,1.488-3.316,3.316c0,1.829,1.488,3.316,3.316,3.316v0.011c0.088,0.028,0.157,0.172,0.157,0.353
		c0,0.182-0.068,0.325-0.157,0.353v0.011h-0.028l0,0l0,0h-0.217c-2.174,0-4.702-1.767-4.702-4.045c0-1.546,1.192-2.853,2.653-3.535
		c0.191-0.092,0.383-0.172,0.573-0.239c-0.974-0.522-1.744-1.445-1.744-2.527c0-1.681,1.897-2.985,3.529-2.985h0.098l0,0
		C-11.366-3.531-11.283-3.368-11.283-3.167z"/>
        <path d="M-8.659,0.281L-8.659,0.281c-0.102,0-0.185-0.163-0.185-0.365c0-0.201,0.083-0.365,0.185-0.365h0
		h0.098c1.632,0,3.529,1.304,3.529,2.985c0,0.904-0.541,1.694-1.286,2.235c-0.036,0.027-0.07,0.055-0.107,0.081
		c-0.005,0.003-0.01,0.006-0.015,0.009c-0.107,0.074-0.218,0.144-0.335,0.209c1.709,0.581,3.226,2.022,3.226,3.767
		c0,2.278-2.528,4.045-4.702,4.045h-0.217h0h0h-0.028v-0.011c-0.088-0.028-0.157-0.172-0.157-0.353c0-0.177,0.066-0.316,0.15-0.349
		c0.002-0.001,0.004-0.004,0.006-0.005v-0.01c1.829,0,3.316-1.488,3.316-3.316s-1.488-3.316-3.316-3.316h-0.156c0,0,0,0-0.001,0
		l0,0h-0.005V5.52c-0.1-0.006-0.18-0.165-0.18-0.362c0-0.198,0.08-0.356,0.18-0.362V4.793c1.244,0,2.256-1.012,2.256-2.256
		C-6.403,1.293-7.415,0.281-8.659,0.281z"/>
</symbol>

    <symbol id="baby" viewBox="0 0 40 40">
	<path d="M20-16c0-2.2-1.8-4-4-4h-32c-2.2,0-4,1.8-4,4v32c0,2.2,1.8,4,4,4h32c2.2,0,4-1.8,4-4V-16z"/>
        <path d="M4.37,11.288c0-2.39-1.937-4.327-4.327-4.327c-2.39,0-4.327,1.937-4.327,4.327
		c0,2.39,1.937,4.327,4.327,4.327C2.433,15.616,4.37,13.678,4.37,11.288z"/>
        <path d="M-1.42-13.28l-2.106,2.398l2.393,2.419l-3.611,3.611c0,0-1.713-1.853-2.744-3.343
		c-1.032-1.49-0.695-3.211,0.795-4.452c1.061-0.883,3.337-2.568,3.337-2.568c0.535-0.534,1.401-0.534,1.935,0
		C-0.886-14.68-0.886-13.814-1.42-13.28z"/>
        <path d="M1.421-13.28l2.106,2.398L1.133-8.463l3.611,3.611c0,0,1.713-1.853,2.744-3.343
		c1.032-1.49,0.696-3.211-0.795-4.452c-1.061-0.883-3.337-2.568-3.337-2.568c-0.534-0.534-1.4-0.534-1.935,0
		C0.887-14.68,0.887-13.814,1.421-13.28z"/>
        <path d="M4.801-2.961v2.236l5.022-4.511c0.553-0.499,1.406-0.455,1.905,0.098
		c0.499,0.554,0.456,1.406-0.098,1.905c0,0-4.637,5.787-5.166,6.405C4.809,5.105,2.708,6.128,0,6.128
		c-2.708,0-4.808-1.023-6.463-2.956c-0.53-0.619-5.167-6.405-5.167-6.405c-0.553-0.499-0.597-1.352-0.098-1.905
		c0.499-0.553,1.352-0.597,1.905-0.098L-4.8-0.725v-2.236H4.801z"/>
</symbol>

    <symbol id="step" viewBox="0 0 40 40">
	<path d="M20-16c0-2.2-1.8-4-4-4h-32c-2.2,0-4,1.8-4,4v32c0,2.2,1.8,4,4,4h32c2.2,0,4-1.8,4-4V-16z"/>
        <path d="M7.276,15.773c0-0.988-0.802-1.79-1.79-1.79c-0.989,0-1.79,0.801-1.79,1.79
		c0,0.989,0.802,1.79,1.79,1.79C6.474,17.563,7.276,16.762,7.276,15.773z"/>
        <polygon points="16.079,-3.381 9.722,-3.381 9.722,-5.643 4.021,-5.643 4.021,-7.897 -1.508,-7.897
		-1.508,-10.151 -7.038,-10.151 -7.038,-12.405 -12.567,-12.405 -12.567,-14.676 -16.079,-14.676 -16.079,-17.563 -9.352,-17.563 
		-9.352,-15.21 -3.871,-15.21 -3.871,-12.956 1.658,-12.956 1.658,-10.702 7.188,-10.702 7.188,-8.448 12.718,-8.448 
		12.718,-6.268 16.079,-6.268"/>
        <path d="M7.644,4.837c-1.305,0.856-2.592,1.7-2.774,1.827c0.47,2.251,0.874,4.273,1.075,5.478
		c0,0,0.148,1.104-0.722,1.295c-1.253,0.255-2.987-0.695-4.948-2.187c-0.223-0.17-0.542-0.425-0.658-0.87
		c-0.104-0.397-0.571-2.848-0.826-3.889c-0.099-0.387,0.134-0.78,0.521-0.879c0.386-0.099,0.755,0.141,0.878,0.521
		c0.276,0.849,0.826,2.684,0.913,2.824c0.103,0.165,0.865,0.791,0.865,0.791L0.482-5.374C0.51-5.813,0.835-6.179,1.27-6.225
		c0.488-0.051,0.927,0.319,0.981,0.827c0,0,0.978,4.37,1.947,8.884l1.673-0.772L4.984-1.673C4.841-2.097,5.068-2.556,5.492-2.699
		c0.423-0.143,0.883,0.084,1.027,0.508c0,0,1.526,3.714,1.734,4.367C8.472,2.862,9.003,3.945,7.644,4.837z"/>
        <path d="M-7.924,10.749c0-0.988-0.801-1.79-1.79-1.79c-0.989,0-1.79,0.801-1.79,1.79
		c0,0.989,0.801,1.79,1.79,1.79C-8.725,12.54-7.924,11.738-7.924,10.749z"/>
        <path d="M-3.916,0.577c0,0-0.256,1.958-0.513,3.156c-0.064,0.297-0.149,0.53-0.361,0.892
		c-0.7,1.2-1.683,2.62-2.601,3.09c-1.433,0.733-2.867,0.318-3.536-0.842c-0.705-1.222-1.624-3.235-4.111-4.854
		c-0.337-0.186-0.562-0.499-0.448-0.86c0.114-0.361,0.499-0.562,0.86-0.448c0.043,0.014,0.084,0.031,0.123,0.052
		c0.538,0.235,2.698,1.231,3.44,2.418l-0.61-13.568c-0.054-0.508,0.298-0.962,0.786-1.013c0.488-0.051,0.927,0.319,0.98,0.827
		l2.801,15.011c0,0,0.896-0.754,1.126-1.346c0.163-0.42,0.465-1.603,0.676-2.696c0.007-0.028-0.005,0.028,0,0
		c0.079-0.401,0.402-0.654,0.785-0.604C-4.136-0.158-3.866,0.193-3.916,0.577z"/>
        <path d="M-3.583-5.641l-4.999,4.044l-0.422-2.91l4.38-2.504c0.378-0.287,0.918-0.213,1.205,0.165
		C-3.132-6.468-3.205-5.928-3.583-5.641z"/>
</symbol>

    <symbol id="public-phone" viewBox="0 0 40 40">
	<path d="M20-16c0-2.2-1.8-4-4-4h-32c-2.2,0-4,1.8-4,4v32c0,2.2,1.8,4,4,4h32c2.2,0,4-1.8,4-4V-16z"/>
        <path d="M4.474,16.457c-0.016,0-0.215,0-1.932,0v-8.89h1.932c0.846,0,1.532,0.686,1.532,1.533v5.825
		C6.007,15.772,5.321,16.457,4.474,16.457z"/>
        <path d="M-6.006,0c0-8.289,3.243-16.457,6.967-16.457c0.19,0,0.363,0,0.534,0v8.931
		C0.877-7.388,0.394-6.879,0.311-6.229c0,0-0.431,2.097-0.431,6.229s0.431,6.229,0.431,6.229c0.083,0.65,0.566,1.159,1.184,1.298
		v8.931c-0.17,0-0.343,0-0.534,0C-2.763,16.457-6.006,8.289-6.006,0z"/>
        <path d="M4.474-7.568H2.543v-8.89c1.717,0,1.916,0,1.932,0c0.846,0,1.532,0.686,1.532,1.532v5.825
		C6.007-8.254,5.321-7.568,4.474-7.568z"/>
</symbol>

    <symbol id="home" viewBox="0 0 15 13">
	<polygon points="12.368,5.058 10.389,3.082 8.819,1.514 7.311,0 0,7.306 1.083,8.388 7.311,2.165 
		13.534,8.388 14.617,7.306 "/>
        <polygon points="2.25,8.102 2.25,13 6.109,13 6.109,9.704 8.508,9.704 8.508,13 12.368,13 12.368,8.101
		7.311,3.044 "/>
</symbol>

    <symbol id="floor" viewBox="0 0 18 16">
	<path d="M18.286,4.571L9.143,0L0,4.571l9.143,4.571L18.286,4.571z M9.143,1.517l6.108,3.054L9.143,7.626L3.035,4.571
	L9.143,1.517z M16.454,7.085L18.286,8l-9.143,4.571L0,8l1.831-0.915l7.311,3.656L16.454,7.085z M16.454,10.513l1.831,0.915L9.143,16
	L0,11.429l1.831-0.915l7.311,3.656L16.454,10.513z"/>
</symbol>

    <symbol id="store" viewBox="0 0 16 12">
	<rect width="16" height="3.294"/>
        <path d="M0,12.706h9.176v-5.02h3.71v5.02H16V4.235H0V12.706z M2.824,7.53h2.51v2.51h-2.51V7.53z"/>
</symbol>

    <symbol id="event" viewBox="0 0 15 16">
	<path d="M5,6h2v2H5V6z M8,6h2v2H8V6z M11,6h2v2h-2V6z M2,12h2v2H2V12z M5,12h2v2H5V12z M8,12h2v2H8V12z M5,9h2v2H5V9z
	 M8,9h2v2H8V9z M11,9h2v2h-2V9z M2,9h2v2H2V9z M13,0v1h-2V0H4v1H2V0H0v16h15V0H13z M14,15H1V4h13V15z"/>
</symbol>

    <symbol id="info" viewBox="0 0 16 16">
	<path d="M10.666,13v-1.667c0-0.097-0.031-0.177-0.094-0.239S10.43,11.001,10.333,11h-1V5.666
	c0-0.097-0.031-0.177-0.094-0.239C9.176,5.365,9.096,5.334,8.999,5.333H5.666c-0.097,0-0.177,0.031-0.239,0.094
	C5.364,5.49,5.333,5.57,5.332,5.666v1.667c0,0.097,0.031,0.177,0.094,0.239c0.063,0.062,0.142,0.094,0.239,0.094h1V11h-1
	c-0.097,0-0.177,0.031-0.239,0.094c-0.062,0.063-0.094,0.142-0.094,0.239V13c0,0.097,0.031,0.177,0.094,0.239
	c0.063,0.062,0.142,0.094,0.239,0.094h4.667c0.097,0,0.177-0.031,0.239-0.094C10.634,13.177,10.666,13.097,10.666,13z M9.333,3.666
	V2c0-0.097-0.031-0.177-0.094-0.239C9.176,1.698,9.096,1.667,8.999,1.666h-2c-0.097,0-0.177,0.031-0.239,0.094S6.666,1.903,6.666,2
	v1.667c0,0.097,0.031,0.177,0.094,0.239C6.823,3.968,6.902,3.999,6.999,4h2c0.097,0,0.177-0.031,0.239-0.094
	C9.301,3.843,9.332,3.763,9.333,3.666z M16,8c0,1.452-0.358,2.79-1.073,4.016c-0.715,1.225-1.686,2.196-2.912,2.912
	C10.79,15.643,9.451,16,8,16c-1.451,0-2.79-0.358-4.016-1.073c-1.226-0.715-2.196-1.685-2.912-2.912S0,9.451,0,8
	s0.358-2.789,1.073-4.016s1.686-2.197,2.912-2.912S6.549,0,8,0c1.451,0,2.79,0.357,4.016,1.073s2.196,1.686,2.912,2.912
	C15.642,5.21,16,6.548,16,8z"/>
</symbol>

    <symbol id="access" viewBox="0 0 9 14">
	<path d="M7.001,4.667c0-0.644-0.228-1.194-0.684-1.65c-0.456-0.456-1.006-0.684-1.65-0.684s-1.194,0.228-1.65,0.684
	c-0.456,0.456-0.684,1.006-0.684,1.65s0.228,1.194,0.684,1.65S4.024,7,4.668,7s1.194-0.228,1.65-0.684
	C6.773,5.861,7.001,5.311,7.001,4.667z M9.334,4.667c0,0.662-0.1,1.206-0.301,1.632l-3.318,7.055
	c-0.097,0.201-0.241,0.359-0.433,0.474C5.091,13.942,4.886,14,4.667,14c-0.219,0-0.424-0.057-0.615-0.173
	c-0.191-0.116-0.333-0.274-0.424-0.474L0.301,6.298C0.1,5.873,0,5.329,0,4.667c0-1.288,0.456-2.388,1.367-3.299S3.379,0,4.667,0
	c1.288,0,2.388,0.455,3.299,1.367s1.367,2.012,1.367,3.299L9.334,4.667z"/>
</symbol>

    <symbol id="search" viewBox="0 0 22 22">
	<path d="M21.311,17.982l0.001-0.001l-3.824-3.825c-0.423-0.422-0.966-0.649-1.518-0.683l-1.299-1.299
	c1.931-3.068,1.561-7.181-1.109-9.85c-3.097-3.099-8.139-3.099-11.237,0c-3.1,3.097-3.1,8.139,0,11.237
	c2.667,2.671,6.779,3.039,9.848,1.109l1.299,1.299c0.034,0.553,0.263,1.097,0.685,1.518l3.824,3.824c0.92,0.92,2.411,0.92,3.33,0
	C22.23,20.393,22.23,18.904,21.311,17.982z M11.897,12.071h0.002c-2.18,1.959-5.728,2.093-7.908-0.087
	c-2.181-2.18-2.18-5.771,0-7.952c2.18-2.18,5.727-2.115,7.906,0.065C14.078,6.277,14.078,10.112,11.897,12.071z"/>
</symbol>

    <symbol id="hatena" viewBox="0 0 14 14">
	<path d="M7,0C3.134,0,0,3.134,0,7s3.134,7,7,7s7-3.134,7-7S10.866,0,7,0z M5.679,10.358c0-0.482,0.39-0.872,0.872-0.872
		c0.481,0,0.872,0.39,0.872,0.872c0,0.481-0.39,0.872-0.872,0.872C6.069,11.229,5.679,10.839,5.679,10.358z M9.396,5.984
		c-0.098,0.268-0.241,0.5-0.402,0.693C8.67,7.064,8.286,7.299,7.97,7.472C7.759,7.586,7.573,7.674,7.457,7.739
		C7.378,7.783,7.335,7.819,7.313,7.843C7.292,7.869,7.285,7.879,7.273,7.921C7.265,7.948,7.257,7.992,7.257,8.06
		c0,0.188,0,0.342,0,0.342c0,0.177-0.143,0.321-0.321,0.321H6.164c-0.177,0-0.321-0.144-0.321-0.321c0,0,0-0.154,0-0.342
		c0-0.176,0.021-0.348,0.066-0.513c0.045-0.164,0.115-0.32,0.205-0.456c0.18-0.276,0.425-0.459,0.656-0.587
		c0.202-0.111,0.403-0.204,0.588-0.308C7.544,6.09,7.71,5.978,7.832,5.856c0.082-0.081,0.145-0.165,0.194-0.26
		C8.089,5.469,8.134,5.32,8.135,5.093c0-0.067-0.019-0.156-0.072-0.257C8.01,4.735,7.924,4.625,7.809,4.527
		c-0.231-0.198-0.57-0.343-0.959-0.342C6.406,4.186,6.107,4.29,5.878,4.42C5.649,4.551,5.576,4.683,5.576,4.683
		C5.46,4.784,5.286,4.788,5.165,4.691L4.572,4.215c-0.074-0.059-0.118-0.149-0.12-0.244C4.45,3.876,4.49,3.785,4.563,3.723
		c0,0,0.185-0.285,0.614-0.53C5.604,2.947,6.17,2.769,6.851,2.771c0.553,0,1.062,0.152,1.484,0.401
		c0.422,0.25,0.763,0.595,0.98,1.008c0.144,0.275,0.233,0.586,0.233,0.913C9.549,5.415,9.495,5.716,9.396,5.984z"/>
</symbol>

    <symbol id="facebook" viewBox="0 0 19 19">
	<path d="M16.455,0H2.636C1.116,0,0,1.072,0,2.592V16.41C0,17.93,1.116,19,2.636,19H9c0,0,0-4,0-8H7V8h2V5.667
	c0-1.398,0.559-3.581,3.477-3.581L15,2.096V5c0,0-1.365,0-1.675,0C13.013,5,13,5.18,13,5.845V8h2.277l-0.312,3H13c0,4,0,8,0,8h3.455
	C17.975,19,19,17.93,19,16.41V2.592C19,1.072,17.975,0,16.455,0z"/>
</symbol>

    <symbol id="twitter" viewBox="0 0 13 10">
	<path d="M11.442,2.581c0.005,0.112,0.008,0.225,0.008,0.338c0,3.456-2.631,7.441-7.441,7.441
	C2.532,10.36,1.157,9.927,0,9.185C0.205,9.21,0.413,9.222,0.624,9.222c1.226,0,2.353-0.418,3.248-1.119
	c-1.144-0.021-2.11-0.778-2.443-1.817c0.159,0.031,0.323,0.047,0.492,0.047c0.239,0,0.469-0.031,0.689-0.091
	c-1.197-0.24-2.098-1.298-2.098-2.564c0-0.011,0-0.022,0-0.034c0.352,0.196,0.756,0.314,1.185,0.327
	c-0.702-0.47-1.164-1.269-1.164-2.177c0-0.479,0.129-0.929,0.354-1.315c1.29,1.582,3.217,2.623,5.391,2.732
	C6.233,3.02,6.21,2.82,6.21,2.615C6.21,1.171,7.381,0,8.826,0c0.752,0,1.432,0.318,1.909,0.826c0.596-0.117,1.156-0.335,1.661-0.635
	c-0.196,0.611-0.61,1.124-1.151,1.447c0.53-0.063,1.034-0.204,1.502-0.412C12.397,1.751,11.953,2.212,11.442,2.581z"/>
</symbol>

    <symbol id="tel" viewBox="0 0 34 25">
	<path d="M4.313,25.302c-1.656,0-2.115-1.001-2.115-2.084c0-0.614,0.038-0.728,0.618-2.153
	c0.034-0.151,0.265-1.076,0.341-1.349c0.769-3.305,2.156-4.503,3.585-5.693c1.728-1.463,2.615-2.736,3.271-5.124
	c0.5-1.736,0.5-2.964,0.5-3.078c0-0.311-0.08-1.122-0.463-1.122c-0.151,0-1.269,0.387-1.269,1.387c0,0.311,0,0.387,0.189,0.849
	c0.193,0.538,0.273,1.001,0.273,1.266c0,2.774-5.62,3.699-7.356,3.699C0.235,11.901,0,10.9,0,9.513C0,7.588,0.462,5.01,3.312,3.274
	C7.474,0.773,13.708,0,16.983,0c3.04,0,9.315,0.735,13.666,3.274C33.113,4.737,34,7.049,34,9.437c0,1.539-0.311,2.464-1.963,2.464
	c-1.618,0-7.315-0.925-7.315-3.699c0-0.341,0.462-1.804,0.462-2.115c0-0.962-1.118-1.387-1.311-1.387
	c-0.307,0-0.424,0.735-0.424,1.122c0,0.265,0.117,4.343,2.657,7.155c0.425,0.463,2.543,2.274,2.888,2.698
	c1.156,1.463,1.505,2.926,2.119,5.238c0.038,0.076,0.39,1.038,0.466,1.19c0.114,0.311,0.189,0.659,0.189,1.076
	c0,1.008-0.345,2.123-2.115,2.123H4.313z M10.4,15.979c0,3.661,2.964,6.587,6.583,6.587c3.616,0,6.583-2.964,6.583-6.587
	c0-3.692-2.967-6.579-6.583-6.579C13.398,9.399,10.4,12.287,10.4,15.979z M15.713,4.737c-0.193,0-1.046-0.152-1.236-0.152
	c-0.614,0-0.728,0.614-0.728,1.039c0,0.887,0.304,1.084,3.233,1.084c3.002,0,3.233-0.197,3.233-1.16
	c0-0.349-0.118-0.963-0.732-0.963c-0.038,0-0.807,0.114-0.883,0.114c-0.542,0.083-1,0.121-1.618,0.121
	C16.365,4.821,16.054,4.783,15.713,4.737z"/>
</symbol>

    <symbol id="list" viewBox="0 0 10 10">
	<path d="M4.667,8.247l2.955-2.955c0.082-0.082,0.124-0.18,0.124-0.293s-0.041-0.21-0.124-0.293L4.667,1.751
	c-0.082-0.082-0.18-0.124-0.293-0.124c-0.113,0-0.21,0.041-0.293,0.124L3.417,2.415c-0.082,0.082-0.124,0.18-0.124,0.293
	c0,0.113,0.041,0.21,0.124,0.293l1.999,1.999L3.417,6.998C3.334,7.08,3.293,7.178,3.293,7.29c0,0.113,0.041,0.21,0.124,0.293
	l0.664,0.664c0.082,0.082,0.18,0.124,0.293,0.124C4.486,8.371,4.584,8.33,4.667,8.247z M9.998,4.999c0,0.907-0.223,1.744-0.67,2.509
	C8.881,8.274,8.274,8.88,7.508,9.328s-1.602,0.671-2.509,0.67c-0.907,0-1.743-0.224-2.509-0.67S1.117,8.275,0.67,7.508
	S0,5.906,0,4.999S0.223,3.256,0.67,2.49S1.724,1.117,2.49,0.67S4.092,0,4.999,0c0.907,0,1.743,0.223,2.509,0.67
	C8.274,1.118,8.881,1.724,9.328,2.49S9.998,4.092,9.998,4.999z"/>
</symbol>

</svg>